# xmcd CD database file
#
# Track frame offsets:
#	150
#	15648
#	28166
#	46119
#	57665
#	76826
#	88627
#	104540
#	116441
#	134315
#	147340
#	165412
#	179190
#	194033
#
# Disc length: 2764 seconds
#
# Revision: 1
# Processed by: cddbd v1.4PL0 Copyright (c) Steve Scherf et al.
# Submitted via: CDex 1.50beta10
#
DISCID=c40aca0e
DTITLE=Dixie Chicks - Little Ol' Cowgirl 
DYEAR=1994
DGENRE=Country
TTITLE0=Little Ol' Cowgirl
TTITLE1=Road Is Just A Road
TTITLE2=She'll Find Better Things to Do
TTITLE3=Irish Medley
TTITLE4=You Send Me
TTITLE5=Just a Bit Like Me
TTITLE6=Heart That Can
TTITLE7=Past the Point of Rescue
TTITLE8=Beatin' Around the Bush
TTITLE9=Two of a Kind
TTITLE10=Standin' by the Bedside
TTITLE11=Aunt Mattie's Quilt
TTITLE12=Hallelujah, I Love Him So
TTITLE13=Pink Toenails
EXTD=YEAR: 1994
EXTT0=
EXTT1=
EXTT2=
EXTT3=
EXTT4=
EXTT5=
EXTT6=
EXTT7=
EXTT8=
EXTT9=
EXTT10=
EXTT11=
EXTT12=
EXTT13=
PLAYORDER=
